<svg id="link-icon" xmlns="http://www.w3.org/2000/svg" width="15" height="15" viewBox="0 0 15 15"><g><g><path d="M13.904 5.66l-2.015 2.008a2.056 2.056 0 0 1-2.918-.01l1.13-1.132c.345.096.79-.053 1.062-.324l1.284-1.279a1.04 1.04 0 0 0 .004-1.465L11.36 2.354a1.028 1.028 0 0 0-1.46-.002L8.615 3.629c-.286.286-.43.7-.312 1.06L7.15 5.82a2.077 2.077 0 0 1 .008-2.928L9.177.883a2.058 2.058 0 0 1 2.918.008l1.818 1.837a2.077 2.077 0 0 1-.01 2.931zM7.686 8.943a2.119 2.119 0 0 1-.01 2.985L5.731 13.87a2.1 2.1 0 0 1-2.973-.008L.907 11.989a2.117 2.117 0 0 1 .008-2.985l1.946-1.94a2.098 2.098 0 0 1 2.973.007L4.677 8.244c-.367-.124-.787.022-1.079.314l-1.2 1.197a1.06 1.06 0 0 0-.005 1.492l1.114 1.122c.409.414 1.074.415 1.485.006l1.199-1.197c.278-.278.43-.734.335-1.086zm-2.42-.404L8.591 5.16a.694.694 0 0 1 .994.003.73.73 0 0 1-.003 1.019l-3.324 3.38a.694.694 0 0 1-.996-.005.732.732 0 0 1 .004-1.018z"/></g></g></svg>